<?xml version="1.0" encoding="utf-8"?>
<!-- Generator: Adobe Illustrator 22.1.0, SVG Export Plug-In . SVG Version: 6.00 Build 0)  -->
<svg version="1.1" id="Laag_1" xmlns="http://www.w3.org/2000/svg" xmlns:xlink="http://www.w3.org/1999/xlink" x="0px" y="0px"
	 viewBox="0 0 256 256" style="enable-background:new 0 0 256 256;" xml:space="preserve">
<style type="text/css">
	.st0{fill:#368973;}
</style>
<g>
	<path class="st0" d="M224.5,129.1c0,24.7-4.8,48.2-18.9,68.9c-6.8,10-15.3,18.6-25.6,25.1c-24.9,15.6-51.8,17.3-79.2,9.6
		c-22.3-6.3-37.9-21.9-48.6-42.2c-11.3-21.6-13.9-44.9-12.7-68.8c0.8-16.9,4.6-33.2,12.2-48.4C56.6,63.5,63,54.7,71,47.2
		c26.6-24.8,58.2-29.4,91.7-19.8c23.6,6.8,40.3,23.5,50.8,45.7C221.9,90.8,224.7,109.7,224.5,129.1z M195,124.5
		c-0.5-16.3-2.7-39.6-15.1-60.8c-9.3-15.9-22.2-26.2-40.7-28.5c-17-2.2-32.4,2.1-44.5,14.1C82.1,62,75.1,78.4,72,95.9
		c-6.3,34.8-5,68.8,12.6,100.7c6.3,11.4,15,21.2,27.4,25c37.7,11.6,61-4.7,74.4-36.7C193.3,168.1,195,150.1,195,124.5z"/>
	<path class="st0" d="M170.8,125.5c0,9.1,0,18.2,0,27.3c0,2.6,0.1,4.9-3.5,5c-3.3,0.1-5.5-0.6-5.7-4.5c-0.1-2-0.6-4-1.2-5.9
		c-1.9-6.1-5.5-10.2-12.4-10.1c-10.5,0-21-0.3-31.5,0.1c-9.6,0.4-13.3,4.4-14.8,14.8c-0.4,3-0.7,5.6-4.7,5.6c-3.2,0-4.8-0.8-4.7-4.4
		c0.1-18.6,0.1-37.2,0-55.7c0-2.6,0.5-4.3,3.6-4.2c2.5,0.1,4.4,0,5.3,3.4c4.3,17,4.7,17.2,22.4,17.2c6.7,0,13.3,0.1,20-0.1
		c13-0.4,15.6-2.7,18-15.4c0.4-2.3,0.1-5,3.7-5.1c3.5-0.1,5.9,0.3,5.5,4.8c-0.4,4.6-0.2,9.3-0.2,13.9c0,4.4,0,8.9,0,13.3
		C170.7,125.5,170.8,125.5,170.8,125.5z"/>
</g>
</svg>
